<svg xmlns="http://www.w3.org/2000/svg" xmlns:xlink="http://www.w3.org/1999/xlink" width="1500" zoomAndPan="magnify" viewBox="0 0 1125 374.999991" height="500" preserveAspectRatio="xMidYMid meet" version="1.0"><defs><clipPath id="70a1f5bade"><path d="M 126.835938 48.253906 L 381.789062 48.253906 L 381.789062 326.503906 L 126.835938 326.503906 Z M 126.835938 48.253906 " clip-rule="nonzero"/></clipPath></defs><rect x="-112.5" width="1350" fill="#ffffff" y="-37.499999" height="449.999989" fill-opacity="1"/><rect x="-112.5" width="1350" fill="#ffffff" y="-37.499999" height="449.999989" fill-opacity="1"/><g clip-path="url(#70a1f5bade)"><path fill="#333333" d="M 379.121094 183.585938 C 377.660156 183.585938 376.472656 184.773438 376.472656 186.234375 C 376.472656 202.734375 373.242188 218.738281 366.875 233.804688 C 360.71875 248.355469 351.910156 261.425781 340.6875 272.652344 C 329.46875 283.875 316.398438 292.6875 301.851562 298.84375 C 286.789062 305.214844 270.789062 308.445312 254.292969 308.445312 L 252.808594 308.445312 C 251.347656 308.445312 250.160156 309.632812 250.160156 311.09375 L 250.160156 319.265625 L 212.816406 297.703125 L 236.871094 283.808594 C 236.914062 283.789062 236.953125 283.761719 236.996094 283.738281 L 250.160156 276.136719 L 250.160156 283.28125 C 250.160156 283.296875 250.160156 283.308594 250.160156 283.324219 C 250.160156 283.347656 250.164062 283.371094 250.164062 283.394531 C 250.164062 283.414062 250.164062 283.4375 250.167969 283.457031 C 250.167969 283.480469 250.171875 283.507812 250.171875 283.53125 C 250.175781 283.550781 250.175781 283.570312 250.179688 283.589844 C 250.179688 283.613281 250.183594 283.636719 250.1875 283.664062 C 250.191406 283.683594 250.195312 283.703125 250.199219 283.722656 C 250.203125 283.746094 250.207031 283.769531 250.210938 283.792969 C 250.214844 283.8125 250.21875 283.832031 250.222656 283.851562 C 250.226562 283.875 250.234375 283.898438 250.238281 283.921875 C 250.242188 283.941406 250.25 283.960938 250.253906 283.980469 C 250.261719 284.003906 250.265625 284.023438 250.273438 284.046875 C 250.277344 284.066406 250.285156 284.085938 250.292969 284.105469 C 250.296875 284.128906 250.304688 284.148438 250.3125 284.167969 C 250.320312 284.191406 250.328125 284.210938 250.335938 284.230469 C 250.34375 284.25 250.351562 284.269531 250.359375 284.289062 C 250.367188 284.308594 250.375 284.328125 250.382812 284.347656 C 250.394531 284.367188 250.402344 284.386719 250.410156 284.40625 C 250.421875 284.425781 250.429688 284.445312 250.4375 284.464844 C 250.449219 284.484375 250.457031 284.503906 250.46875 284.523438 C 250.476562 284.542969 250.488281 284.558594 250.5 284.578125 C 250.507812 284.597656 250.519531 284.617188 250.53125 284.632812 C 250.542969 284.652344 250.554688 284.671875 250.566406 284.6875 C 250.574219 284.707031 250.585938 284.722656 250.597656 284.742188 C 250.609375 284.757812 250.621094 284.777344 250.632812 284.792969 C 250.648438 284.8125 250.660156 284.828125 250.671875 284.847656 C 250.683594 284.863281 250.695312 284.878906 250.710938 284.898438 C 250.722656 284.914062 250.734375 284.929688 250.75 284.949219 C 250.761719 284.964844 250.777344 284.980469 250.789062 284.996094 C 250.804688 285.011719 250.816406 285.027344 250.832031 285.046875 C 250.84375 285.058594 250.859375 285.074219 250.875 285.089844 C 250.886719 285.105469 250.902344 285.121094 250.917969 285.136719 C 250.933594 285.152344 250.945312 285.167969 250.960938 285.179688 C 250.976562 285.195312 250.992188 285.210938 251.011719 285.226562 C 251.023438 285.238281 251.039062 285.253906 251.054688 285.265625 C 251.070312 285.28125 251.089844 285.296875 251.105469 285.3125 C 251.121094 285.324219 251.136719 285.335938 251.152344 285.347656 C 251.167969 285.363281 251.1875 285.375 251.207031 285.390625 C 251.222656 285.402344 251.234375 285.414062 251.25 285.425781 C 251.269531 285.4375 251.289062 285.453125 251.308594 285.464844 C 251.324219 285.476562 251.339844 285.488281 251.355469 285.496094 C 251.375 285.511719 251.394531 285.523438 251.417969 285.535156 C 251.433594 285.546875 251.449219 285.554688 251.464844 285.566406 C 251.484375 285.578125 251.503906 285.589844 251.527344 285.601562 C 251.542969 285.609375 251.558594 285.617188 251.578125 285.628906 C 251.597656 285.636719 251.617188 285.648438 251.640625 285.660156 C 251.65625 285.667969 251.675781 285.675781 251.691406 285.683594 C 251.714844 285.695312 251.734375 285.703125 251.757812 285.714844 C 251.773438 285.722656 251.792969 285.730469 251.8125 285.738281 C 251.832031 285.746094 251.855469 285.753906 251.875 285.761719 C 251.894531 285.769531 251.914062 285.777344 251.933594 285.78125 C 251.953125 285.789062 251.976562 285.796875 251.996094 285.804688 C 252.015625 285.8125 252.039062 285.816406 252.058594 285.824219 C 252.078125 285.828125 252.101562 285.835938 252.121094 285.839844 C 252.144531 285.847656 252.164062 285.851562 252.1875 285.859375 C 252.207031 285.863281 252.226562 285.867188 252.25 285.871094 C 252.269531 285.875 252.292969 285.882812 252.316406 285.886719 C 252.335938 285.890625 252.359375 285.894531 252.378906 285.894531 C 252.402344 285.898438 252.425781 285.902344 252.449219 285.90625 C 252.46875 285.910156 252.488281 285.914062 252.511719 285.914062 C 252.535156 285.917969 252.558594 285.917969 252.582031 285.921875 C 252.601562 285.921875 252.625 285.925781 252.644531 285.925781 C 252.667969 285.925781 252.691406 285.929688 252.714844 285.929688 C 252.730469 285.929688 252.742188 285.929688 252.757812 285.929688 C 252.992188 285.9375 253.175781 285.9375 253.335938 285.9375 C 253.480469 285.9375 253.609375 285.9375 253.75 285.933594 C 253.902344 285.933594 254.070312 285.933594 254.292969 285.933594 C 267.726562 285.933594 280.769531 283.292969 293.058594 278.082031 C 304.921875 273.054688 315.582031 265.859375 324.742188 256.699219 C 333.898438 247.539062 341.09375 236.875 346.121094 225.007812 C 351.328125 212.714844 353.964844 199.671875 353.964844 186.234375 C 353.964844 172.800781 351.328125 159.753906 346.121094 147.460938 C 341.09375 135.59375 333.898438 124.933594 324.742188 115.769531 C 315.582031 106.609375 304.921875 99.414062 293.058594 94.386719 C 289.4375 92.851562 285.710938 91.53125 281.921875 90.4375 L 300.90625 79.472656 C 301.726562 79 302.230469 78.125 302.230469 77.179688 C 302.230469 76.230469 301.726562 75.359375 300.90625 74.882812 L 255.617188 48.730469 C 254.800781 48.257812 253.789062 48.257812 252.96875 48.730469 C 252.152344 49.203125 251.644531 50.078125 251.644531 51.023438 L 251.644531 58.753906 C 235.375 59.082031 219.585938 62.4375 204.675781 68.746094 C 197.121094 71.941406 189.835938 75.898438 183.019531 80.503906 C 176.269531 85.066406 169.921875 90.300781 164.15625 96.070312 C 158.386719 101.839844 153.152344 108.191406 148.589844 114.941406 C 143.988281 121.757812 140.03125 129.046875 136.835938 136.601562 C 130.1875 152.324219 126.816406 169.023438 126.816406 186.234375 C 126.816406 187.699219 128.003906 188.882812 129.46875 188.882812 C 130.929688 188.882812 132.117188 187.699219 132.117188 186.234375 C 132.117188 169.734375 135.34375 153.730469 141.714844 138.664062 C 147.871094 124.113281 156.679688 111.042969 167.902344 99.820312 C 179.121094 88.59375 192.1875 79.78125 206.738281 73.625 C 221.800781 67.253906 237.800781 64.023438 254.292969 64.023438 C 255.757812 64.023438 256.945312 62.835938 256.945312 61.375 L 256.945312 55.613281 L 294.285156 77.179688 L 273.679688 89.078125 C 273.644531 89.097656 273.613281 89.117188 273.582031 89.136719 L 256.945312 98.742188 L 256.945312 89.1875 C 256.945312 87.722656 255.757812 86.539062 254.296875 86.539062 C 240.863281 86.539062 227.820312 89.179688 215.53125 94.386719 C 203.667969 99.414062 193.007812 106.609375 183.847656 115.769531 C 174.6875 124.933594 167.496094 135.59375 162.46875 147.460938 C 157.261719 159.753906 154.625 172.796875 154.625 186.234375 C 154.625 199.671875 157.261719 212.714844 162.46875 225.007812 C 167.496094 236.875 174.6875 247.539062 183.847656 256.699219 C 193.007812 265.859375 203.667969 273.054688 215.53125 278.082031 C 219.734375 279.863281 224.066406 281.351562 228.480469 282.539062 L 206.195312 295.40625 C 205.375 295.878906 204.871094 296.753906 204.871094 297.699219 C 204.871094 298.648438 205.375 299.523438 206.195312 299.996094 L 251.484375 326.148438 C 251.894531 326.386719 252.351562 326.503906 252.808594 326.503906 C 253.265625 326.503906 253.722656 326.386719 254.132812 326.148438 C 254.953125 325.675781 255.457031 324.800781 255.457031 323.855469 L 255.457031 313.738281 C 272.253906 313.589844 288.550781 310.222656 303.914062 303.722656 C 311.46875 300.527344 318.753906 296.570312 325.570312 291.964844 C 332.320312 287.40625 338.667969 282.167969 344.433594 276.398438 C 350.203125 270.628906 355.4375 264.28125 360 257.527344 C 364.601562 250.710938 368.558594 243.425781 371.753906 235.867188 C 378.398438 220.144531 381.769531 203.445312 381.769531 186.234375 C 381.769531 184.773438 380.585938 183.585938 379.121094 183.585938 Z M 217.597656 273.203125 C 206.363281 268.445312 196.269531 261.628906 187.59375 252.953125 C 178.917969 244.273438 172.105469 234.179688 167.347656 222.941406 C 162.417969 211.304688 159.921875 198.957031 159.921875 186.234375 C 159.921875 173.511719 162.417969 161.164062 167.347656 149.527344 C 172.105469 138.292969 178.917969 128.195312 187.59375 119.515625 C 196.269531 110.839844 206.363281 104.027344 217.597656 99.265625 C 228.421875 94.679688 239.863281 92.195312 251.644531 91.875 L 251.644531 103.332031 C 251.644531 104.277344 252.152344 105.152344 252.96875 105.625 C 253.789062 106.101562 254.800781 106.101562 255.617188 105.625 L 275.382812 94.210938 C 280.710938 95.433594 285.957031 97.132812 290.992188 99.265625 C 302.226562 104.027344 312.320312 110.839844 320.996094 119.515625 C 329.671875 128.195312 336.484375 138.292969 341.242188 149.527344 C 346.171875 161.164062 348.667969 173.511719 348.667969 186.234375 C 348.667969 198.957031 346.171875 211.304688 341.242188 222.941406 C 336.484375 234.175781 329.671875 244.273438 320.996094 252.953125 C 312.320312 261.628906 302.226562 268.445312 290.992188 273.203125 C 279.714844 277.984375 267.765625 280.476562 255.457031 280.625 L 255.457031 271.546875 C 255.457031 270.601562 254.953125 269.726562 254.132812 269.253906 C 253.3125 268.777344 252.304688 268.777344 251.484375 269.253906 L 235.15625 278.683594 C 229.148438 277.4375 223.246094 275.597656 217.597656 273.203125 Z M 217.597656 273.203125 " fill-opacity="1" fill-rule="nonzero"/></g><path fill="#333333" d="M 254.53125 240.488281 C 255.269531 242.894531 256.898438 244.871094 259.121094 246.054688 C 260.5 246.785156 262.007812 247.160156 263.527344 247.160156 C 264.457031 247.160156 265.386719 247.019531 266.300781 246.742188 L 277.234375 243.394531 C 279.640625 242.65625 281.617188 241.023438 282.796875 238.800781 C 283.976562 236.578125 284.222656 234.027344 283.484375 231.621094 L 281.71875 225.855469 C 283.867188 224.359375 285.902344 222.679688 287.78125 220.855469 L 293.101562 223.683594 C 294.507812 224.429688 296.015625 224.78125 297.507812 224.78125 C 300.882812 224.78125 304.152344 222.964844 305.84375 219.78125 L 311.207031 209.679688 C 312.390625 207.457031 312.632812 204.90625 311.898438 202.496094 C 311.160156 200.089844 309.53125 198.113281 307.304688 196.933594 L 301.984375 194.105469 C 302.445312 191.527344 302.695312 188.898438 302.734375 186.28125 L 308.496094 184.515625 C 313.464844 182.996094 316.269531 177.714844 314.746094 172.746094 L 311.398438 161.808594 C 309.878906 156.839844 304.597656 154.035156 299.628906 155.554688 L 293.867188 157.320312 C 292.371094 155.175781 290.691406 153.136719 288.867188 151.257812 L 291.695312 145.933594 C 294.132812 141.34375 292.382812 135.628906 287.792969 133.1875 L 277.695312 127.824219 C 273.105469 125.386719 267.390625 127.136719 264.953125 131.726562 L 262.125 137.050781 C 259.550781 136.589844 256.921875 136.339844 254.304688 136.300781 L 252.539062 130.539062 C 251.800781 128.128906 250.171875 126.152344 247.949219 124.972656 C 245.726562 123.792969 243.175781 123.546875 240.769531 124.285156 L 229.835938 127.632812 C 224.867188 129.15625 222.066406 134.4375 223.585938 139.40625 L 225.351562 145.167969 C 223.203125 146.667969 221.167969 148.347656 219.289062 150.171875 L 213.96875 147.34375 C 211.746094 146.164062 209.195312 145.917969 206.789062 146.65625 C 204.382812 147.390625 202.40625 149.023438 201.226562 151.246094 L 195.863281 161.347656 C 194.679688 163.570312 194.4375 166.121094 195.171875 168.527344 C 195.910156 170.933594 197.539062 172.910156 199.761719 174.09375 L 205.082031 176.917969 C 204.625 179.496094 204.375 182.125 204.335938 184.742188 L 198.574219 186.507812 C 196.167969 187.246094 194.191406 188.875 193.011719 191.101562 C 191.828125 193.324219 191.585938 195.875 192.324219 198.28125 L 195.671875 209.214844 C 196.40625 211.625 198.039062 213.601562 200.261719 214.78125 C 202.484375 215.960938 205.03125 216.207031 207.4375 215.46875 L 213.203125 213.703125 C 214.699219 215.851562 216.378906 217.890625 218.203125 219.769531 L 215.375 225.089844 C 212.9375 229.679688 214.6875 235.398438 219.277344 237.835938 L 229.375 243.199219 C 231.597656 244.382812 234.148438 244.625 236.554688 243.890625 C 238.960938 243.152344 240.9375 241.523438 242.117188 239.296875 L 244.945312 233.976562 C 247.519531 234.433594 250.148438 234.6875 252.765625 234.726562 Z M 244.746094 228.640625 C 242.9375 228.640625 241.261719 229.617188 240.398438 231.242188 L 237.441406 236.8125 C 236.921875 237.785156 236.058594 238.5 235.003906 238.824219 C 233.949219 239.144531 232.832031 239.039062 231.859375 238.523438 L 221.761719 233.15625 C 219.753906 232.089844 218.988281 229.585938 220.054688 227.574219 L 223.011719 222.003906 C 224.019531 220.105469 223.675781 217.785156 222.152344 216.230469 C 220.421875 214.464844 218.828125 212.535156 217.421875 210.496094 C 216.1875 208.707031 213.976562 207.925781 211.917969 208.554688 L 205.886719 210.402344 C 204.835938 210.726562 203.71875 210.621094 202.746094 210.101562 C 201.769531 209.585938 201.058594 208.71875 200.734375 207.664062 L 197.386719 196.730469 C 197.066406 195.675781 197.171875 194.558594 197.6875 193.585938 C 198.207031 192.613281 199.070312 191.898438 200.125 191.574219 L 206.15625 189.726562 C 208.210938 189.097656 209.609375 187.214844 209.628906 185.039062 C 209.652344 182.5625 209.890625 180.070312 210.335938 177.636719 C 210.726562 175.496094 209.714844 173.378906 207.816406 172.371094 L 202.25 169.414062 C 201.273438 168.894531 200.5625 168.03125 200.238281 166.976562 C 199.914062 165.921875 200.023438 164.804688 200.539062 163.832031 L 205.902344 153.730469 C 206.421875 152.757812 207.285156 152.042969 208.339844 151.722656 C 209.394531 151.398438 210.507812 151.503906 211.484375 152.023438 L 217.050781 154.980469 C 218.949219 155.988281 221.269531 155.644531 222.824219 154.121094 C 224.589844 152.390625 226.519531 150.796875 228.558594 149.390625 C 230.347656 148.15625 231.128906 145.941406 230.496094 143.886719 L 228.652344 137.855469 C 227.984375 135.675781 229.210938 133.363281 231.386719 132.699219 L 242.320312 129.351562 C 243.375 129.027344 244.492188 129.132812 245.464844 129.652344 C 246.4375 130.167969 247.152344 131.035156 247.472656 132.089844 L 249.320312 138.121094 C 249.949219 140.175781 251.835938 141.574219 254.007812 141.59375 C 256.484375 141.621094 258.972656 141.859375 261.410156 142.304688 C 263.550781 142.695312 265.664062 141.679688 266.671875 139.78125 L 269.628906 134.210938 C 270.699219 132.203125 273.199219 131.4375 275.210938 132.503906 L 285.308594 137.867188 C 286.28125 138.386719 286.996094 139.25 287.316406 140.304688 C 287.640625 141.359375 287.535156 142.476562 287.015625 143.449219 L 284.058594 149.019531 C 283.050781 150.917969 283.394531 153.238281 284.917969 154.792969 C 286.648438 156.5625 288.242188 158.492188 289.648438 160.527344 C 290.882812 162.320312 293.09375 163.097656 295.152344 162.46875 L 301.179688 160.621094 C 303.359375 159.957031 305.667969 161.183594 306.335938 163.359375 L 309.683594 174.296875 C 310.347656 176.472656 309.121094 178.785156 306.945312 179.449219 L 300.914062 181.296875 C 298.859375 181.925781 297.460938 183.8125 297.441406 185.988281 C 297.417969 188.460938 297.179688 190.953125 296.734375 193.390625 C 296.34375 195.53125 297.355469 197.644531 299.253906 198.652344 L 304.820312 201.613281 C 305.796875 202.128906 306.507812 202.996094 306.832031 204.046875 C 307.15625 205.101562 307.046875 206.21875 306.53125 207.191406 L 301.167969 217.292969 C 300.101562 219.304688 297.597656 220.070312 295.585938 219.003906 L 290.019531 216.042969 C 288.121094 215.035156 285.800781 215.382812 284.246094 216.902344 C 282.480469 218.636719 280.550781 220.226562 278.511719 221.632812 C 276.722656 222.871094 275.941406 225.082031 276.574219 227.140625 L 278.417969 233.171875 C 278.742188 234.226562 278.636719 235.34375 278.117188 236.316406 C 277.601562 237.289062 276.734375 238.003906 275.683594 238.328125 L 264.75 241.675781 C 263.695312 241.996094 262.578125 241.890625 261.605469 241.375 C 260.632812 240.855469 259.917969 239.992188 259.59375 238.9375 L 257.75 232.902344 C 257.117188 230.847656 255.234375 229.453125 253.058594 229.429688 C 250.585938 229.40625 248.097656 229.167969 245.660156 228.722656 C 245.355469 228.667969 245.050781 228.640625 244.746094 228.640625 Z M 244.746094 228.640625 " fill-opacity="1" fill-rule="nonzero"/><path fill="#333333" d="M 261.132812 210.328125 C 266.347656 208.730469 270.820312 205.632812 274.066406 201.371094 C 276.703125 197.90625 278.398438 194.023438 279.109375 189.828125 C 279.773438 185.882812 279.503906 181.765625 278.328125 177.917969 C 277.148438 174.074219 275.066406 170.511719 272.308594 167.613281 C 269.371094 164.535156 265.792969 162.265625 261.667969 160.875 C 256.59375 159.160156 251.15625 159.097656 245.9375 160.699219 C 240.722656 162.296875 236.25 165.390625 233.003906 169.652344 C 230.367188 173.117188 228.671875 177 227.960938 181.195312 C 227.296875 185.140625 227.566406 189.261719 228.742188 193.105469 C 229.921875 196.953125 232 200.515625 234.761719 203.410156 C 237.699219 206.492188 241.277344 208.757812 245.402344 210.152344 C 248.03125 211.039062 250.753906 211.484375 253.5 211.484375 C 256.050781 211.484375 258.617188 211.097656 261.132812 210.328125 Z M 247.097656 205.132812 C 240.625 202.945312 235.78125 197.996094 233.808594 191.554688 C 231.835938 185.113281 233.078125 178.300781 237.21875 172.863281 C 241.113281 167.746094 247.300781 164.851562 253.585938 164.851562 C 255.734375 164.851562 257.894531 165.191406 259.972656 165.894531 C 266.445312 168.082031 271.289062 173.027344 273.261719 179.46875 C 275.234375 185.914062 273.992188 192.726562 269.851562 198.160156 C 265.957031 203.277344 259.765625 206.171875 253.484375 206.171875 C 251.335938 206.171875 249.175781 205.835938 247.097656 205.132812 Z M 247.097656 205.132812 " fill-opacity="1" fill-rule="nonzero"/><path stroke-linecap="butt" transform="matrix(3.242257, 0, 0, 3.242257, 457.031287, 104.229017)" fill="none" stroke-linejoin="miter" d="M 22.465772 15.93866 L 23.183829 9.766503 C 21.379048 8.966521 19.359814 8.596649 17.25745 8.596649 C -3.066211 8.596649 -3.107174 39.081538 17.25745 39.081538 C 19.359814 39.081538 22.004336 38.579139 23.860923 37.821324 L 23.06094 31.606999 C 21.92241 32.191324 19.862213 32.950344 17.25745 32.950344 C 5.373367 32.950344 5.373367 14.636279 17.25745 14.636279 C 19.862213 14.636279 21.338085 15.354335 22.465772 15.93866 Z M 43.09545 39.420084 C 63.756453 39.420084 63.756453 8.464122 43.09545 8.464122 C 22.423604 8.464122 22.423604 39.420084 43.09545 39.420084 Z M 43.09545 33.206965 C 31.077635 33.206965 31.077635 14.636279 43.09545 14.636279 C 55.102422 14.636279 55.102422 33.206965 43.09545 33.206965 Z M 70.22017 22.665022 L 85.425868 39.624899 L 87.025833 39.624899 L 87.025833 9.007484 L 80.976566 9.007484 L 80.976566 25.976999 L 65.810626 8.341233 L 64.221503 8.341233 L 64.221503 38.999612 L 70.22017 38.999612 Z M 92.405236 37.071942 C 96.476233 39.163463 100.208683 39.379122 101.890575 39.256233 C 107.51937 38.958649 110.965079 35.134634 110.965079 30.140765 C 110.965079 25.351711 106.935045 22.665022 102.26888 20.943372 C 100.54723 20.348204 99.080997 19.600028 98.906302 17.918136 C 98.783413 16.236244 99.747247 14.677241 101.890575 14.554353 C 102.812242 14.51339 104.709792 14.472427 108.021769 15.815771 L 108.780789 10.02192 C 104.914607 8.67978 102.85441 8.67978 101.305045 8.761706 C 96.301538 9.007484 92.814866 12.872461 92.814866 17.918136 C 92.814866 22.952968 97.019595 25.351711 101.725518 27.074566 C 103.40741 27.658891 104.709792 28.417911 104.832681 30.140765 C 104.996533 31.770851 103.489336 33.03227 101.725518 33.166002 C 100.341211 33.288891 96.599122 33.206965 93.153413 30.766053 Z M 137.551256 28.5408 L 137.551256 8.966521 L 131.58271 8.966521 L 131.58271 28.499837 C 131.58271 34.796087 121.841955 34.796087 121.841955 28.499837 L 121.841955 8.966521 L 115.83365 8.966521 L 115.83365 28.5408 C 115.83365 42.824831 137.551256 42.824831 137.551256 28.5408 Z M 144.189668 38.999612 L 156.073751 38.999612 C 160.944731 38.999612 164.932597 35.011745 164.932597 29.96607 C 164.932597 27.617928 163.80491 25.310748 161.826639 23.967404 C 163.713346 22.665022 164.512124 20.307241 164.595255 18.041025 C 164.727782 12.749572 161.406167 8.925558 156.073751 8.925558 L 144.189668 8.925558 Z M 150.238936 14.933862 L 155.571352 14.933862 C 157.294206 14.933862 158.339967 16.277207 158.339967 17.959099 C 158.339967 19.600028 157.294206 20.984335 155.571352 20.984335 L 150.238936 20.984335 Z M 150.238936 26.99264 L 155.571352 26.99264 C 157.294206 26.99264 158.596588 28.295022 158.596588 29.96607 C 158.596588 31.647962 157.294206 32.991307 155.571352 32.991307 L 150.238936 32.991307 Z M 150.238936 26.99264 " stroke="#000000" stroke-width="1.70625" stroke-opacity="1" stroke-miterlimit="4"/></svg>